<svg version="1.1" xmlns="http://www.w3.org/2000/svg" width="100%" height="auto" viewBox="0 0 1500 764">
<path d="M0 0 C2.87 5.74 -1.09 14.18 -2.9 19.85 C-4.06 23.18 -5.44 26.31 -6.94 29.5 C-8.79 33.85 -10.14 38.37 -11.56 42.86 C-12.66 46.19 -13.98 49.4 -15.34 52.62 C-18.62 60.38 -21.46 68.29 -24.34 76.2 C-26.43 81.91 -28.61 87.53 -31.14 93.06 C-32.37 95.82 -33.38 98.65 -34.38 101.5 C-34.79 102.69 -35.21 103.88 -35.64 105.11 C-36.1 106.41 -36.55 107.7 -37 109 C-37.76 111.19 -38.53 113.37 -39.29 115.56 C-39.79 116.97 -40.28 118.38 -40.77 119.79 C-42.02 123.35 -43.34 126.87 -44.77 130.37 C-47.96 138.28 -50.76 146.34 -53.62 154.38 C-54.57 157.03 -55.52 159.68 -56.47 162.33 C-57.1 164.09 -57.73 165.85 -58.36 167.62 C-60.1 172.51 -61.87 177.39 -63.65 182.27 C-71.01 202.5 -77.59 222.98 -84.19 243.47 C-85.42 247.31 -86.66 251.14 -87.91 254.98 C-89.94 261.27 -91.97 267.56 -93.99 273.86 C-94.89 276.66 -95.79 279.45 -96.7 282.24 C-99.82 291.91 -102.62 301.65 -105.32 311.45 C-107.31 318.63 -109.42 325.76 -111.62 332.88 C-114.7 342.85 -117.48 352.87 -120 363 C-120.08 363.33 -120.08 363.33 -120.5 364.99 C-123.31 376.28 -123.31 376.28 -123 381 C-121.81 382.88 -121.81 382.88 -120 384 C-105.48 382.42 -90.02 365.11 -79.32 355.85 C-76.34 353.28 -73.31 350.79 -70.25 348.31 C-65.9 344.78 -61.71 341.11 -57.58 337.34 C-55.48 335.44 -53.36 333.58 -51.22 331.72 C-46.16 327.3 -41.32 322.65 -36.47 317.99 C-35.79 317.35 -35.11 316.7 -34.41 316.04 C-33.81 315.45 -33.2 314.87 -32.57 314.27 C-31 313 -31 313 -29 313 C-29 312.34 -29 311.68 -29 311 C-28.34 311 -27.68 311 -27 311 C-26.67 310.01 -26.34 309.02 -26 308 C-24.47 306.49 -24.47 306.49 -22.5 304.88 C-16.76 300 -11.26 294.84 -6.56 288.94 C-6.05 288.3 -5.53 287.66 -5 287 C-4.34 287 -3.68 287 -3 287 C-2.32 285.68 -1.65 284.34 -1 283 C0.38 281.54 0.38 281.54 2 280.06 C6.05 276.17 9.32 271.79 12.62 267.27 C13.7 265.81 14.85 264.4 16 263 C16.66 263 17.32 263 18 263 C18.7 261.35 19.36 259.68 20 258 C20.94 256.54 21.92 255.1 22.94 253.69 C27.84 246.43 30.16 239.88 29 231 C27.73 227.47 26 226 22.88 224 C22.08 223.49 21.28 222.97 20.45 222.45 C18.22 221.13 15.97 219.98 13.62 218.88 C10.56 217.39 8.47 216.22 7 213 C7.14 210.09 7.57 208.54 9.38 206.25 C13.25 203.27 18.18 203.57 22.86 203.25 C23.8 203.18 24.74 203.12 25.71 203.05 C53.84 201.16 81.93 200.64 110.12 200.57 C113.07 200.56 116.01 200.55 118.96 200.53 C123.65 200.5 128.33 200.49 133.02 200.5 C134.77 200.5 136.52 200.5 138.26 200.49 C140.67 200.47 143.08 200.48 145.49 200.5 C146.2 200.49 146.91 200.48 147.63 200.47 C151.01 200.52 152.76 200.82 155.49 202.85 C157 205 157 205 156.63 207.85 C154.59 211.79 152.07 214.41 148.88 217.44 C148.28 218.01 147.69 218.59 147.08 219.18 C142.85 223.27 138.51 227.21 134 231 C131.73 232.93 129.46 234.87 127.19 236.81 C126.58 237.33 125.98 237.85 125.35 238.38 C121.61 241.58 117.94 244.85 114.31 248.19 C109.9 252.23 105.34 256.03 100.68 259.79 C98.05 261.96 95.52 264.2 93 266.5 C88.68 270.44 84.2 274.14 79.65 277.82 C77.21 279.82 74.85 281.89 72.5 284 C69.26 286.91 65.95 289.7 62.56 292.44 C58.95 295.37 55.44 298.37 52 301.5 C47.78 305.35 43.41 308.97 38.97 312.56 C35.67 315.27 32.42 318.03 29.19 320.81 C28.6 321.32 28.01 321.82 27.41 322.34 C25.61 323.89 23.8 325.45 22 327 C15.31 332.77 8.61 338.54 1.81 344.19 C0.95 344.9 0.09 345.62 -0.79 346.36 C-3 348 -3 348 -6 349 C-6 349.66 -6 350.32 -6 351 C-7.69 352.45 -7.69 352.45 -10 354.12 C-21.34 362.69 -21.34 362.69 -24 368 C-24.4 372.67 -23.74 375.14 -21.12 379 C-20.8 379.48 -20.8 379.48 -19.18 381.89 C-18.46 382.91 -17.74 383.94 -17 385 C-16.63 385.54 -16.25 386.08 -15.86 386.64 C-10.01 395.1 -3.79 403.22 2.62 411.25 C3.99 412.98 5.34 414.72 6.68 416.46 C15.68 428.09 25.28 439.19 35.29 449.95 C37 452 37 452 38.11 454.27 C38.41 454.84 38.7 455.41 39 456 C39.66 456 40.32 456 41 456 C42.27 457.29 42.27 457.29 43.81 459.19 C47.19 463.16 50.76 466.88 54.44 470.56 C54.96 471.09 55.49 471.62 56.03 472.17 C77.59 493.65 104.02 512.06 134 519 C134.68 519.17 135.37 519.34 136.07 519.51 C144.6 521.45 153.29 521.65 162 522.03 C164.06 522.12 166.12 522.23 168.18 522.34 C169.39 522.4 170.61 522.45 171.86 522.51 C175.18 523.03 176.67 523.62 179 526 C179.58 529.59 179.3 531.44 177.57 534.64 C172.65 541.04 167.48 547.08 162 553 C160.6 554.58 159.21 556.17 157.81 557.75 C149.48 567 140.66 576.12 131 584 C130.72 584.24 130.72 584.24 129.3 585.46 C124.96 589.01 120.21 591.63 115.25 594.19 C114.62 594.52 113.99 594.85 113.34 595.2 C102.97 600.37 92.4 601.56 80.94 601.5 C80.3 601.5 80.3 601.5 77.1 601.49 C62.25 601.22 49.19 597.82 36 591 C35.59 590.81 35.59 590.81 33.5 589.82 C23.09 584.85 12.84 578.43 4 571 C4 570.34 4 569.68 4 569 C2.19 568 2.19 568 0 567 C-0.99 566.34 -1.98 565.68 -3 565 C-3 564.34 -3 563.68 -3 563 C-3.55 562.73 -4.1 562.47 -4.67 562.2 C-12.62 558.12 -19.28 548.77 -25 542 C-25.83 541.03 -26.66 540.07 -27.52 539.07 C-36.69 528.39 -45.17 517.29 -53.3 505.8 C-55.24 503.06 -57.2 500.35 -59.17 497.64 C-65.58 488.83 -71.81 479.95 -77.79 470.84 C-80.3 467.02 -82.85 463.22 -85.39 459.42 C-87.3 456.56 -89.2 453.69 -91.09 450.81 C-104.18 430.91 -104.18 430.91 -108 429 C-114.35 428.22 -117.66 429.4 -122.78 433.18 C-134.48 442.74 -141.29 454.74 -146 469 C-146.41 470.23 -146.82 471.45 -147.24 472.72 C-150.65 483.42 -152.79 494.33 -154.89 505.35 C-155.52 508.67 -156.2 511.95 -157.05 515.23 C-158.06 519.22 -158.85 523.2 -159.56 527.25 C-159.69 527.92 -159.81 528.6 -159.94 529.29 C-161.85 540.01 -162.21 550.79 -162.24 561.66 C-162.25 563.7 -162.28 565.74 -162.31 567.78 C-162.36 580.29 -159.95 589.32 -151.44 598.72 C-146.17 603.67 -139.59 606.24 -132.91 608.8 C-128.65 610.47 -125.76 612.3 -123 616 C-122.81 619.13 -122.81 619.13 -124 622 C-128.05 624.43 -131.63 625.49 -136.29 626.1 C-137.48 626.26 -138.67 626.42 -139.89 626.59 C-141.13 626.74 -142.36 626.9 -143.62 627.06 C-146.05 627.39 -148.48 627.71 -150.91 628.04 C-152.11 628.19 -153.31 628.35 -154.55 628.52 C-157.65 628.95 -160.73 629.45 -163.82 630 C-171.61 631.33 -179.46 632.14 -187.31 633 C-190.31 633.33 -193.3 633.66 -196.3 634 C-196.67 634.04 -196.67 634.04 -198.52 634.25 C-203.3 634.79 -208.05 635.4 -212.81 636.05 C-219.45 636.95 -226.08 637.67 -232.75 638.25 C-233.27 638.3 -233.27 638.3 -235.88 638.56 C-243.94 639.25 -251.96 639.42 -259.09 635.15 C-264.21 630.2 -268.09 625.53 -271 619 C-271.41 618.11 -271.83 617.23 -272.25 616.31 C-274.1 610.61 -274.18 604.93 -274.19 599 C-274.2 598.24 -274.21 597.48 -274.22 596.69 C-274.26 583.54 -271.22 570.83 -268.22 558.11 C-267.63 555.57 -267.04 553.03 -266.45 550.5 C-264.41 541.71 -262.25 532.97 -259.88 524.27 C-257.73 516.25 -255.81 508.27 -255 500 C-261.66 505 -267.85 510.39 -274 516 C-279.83 521.23 -285.86 526.15 -292 531 C-292.51 531.41 -292.51 531.41 -295.08 533.46 C-310.62 545.83 -326.49 557.31 -343.54 567.53 C-345.22 568.53 -346.9 569.55 -348.58 570.57 C-353.5 573.56 -358.45 576.39 -363.62 578.94 C-364.31 579.27 -364.99 579.61 -365.69 579.96 C-367.79 580.98 -369.89 581.99 -372 583 C-372.31 583.15 -372.31 583.15 -373.9 583.91 C-391.68 592.34 -410.65 598.44 -430 602 C-430.87 602.17 -431.74 602.33 -432.63 602.5 C-439.69 603.78 -446.46 604.31 -453.62 604.3 C-454.16 604.3 -454.16 604.3 -456.86 604.31 C-459.11 604.32 -461.35 604.32 -463.6 604.32 C-466.96 604.31 -470.33 604.34 -473.7 604.36 C-525.05 604.51 -570.28 584.25 -608 550 C-608.77 549.3 -609.54 548.61 -610.34 547.89 C-632.1 527.14 -645.87 499.03 -651.71 469.84 C-653.11 462.89 -653.11 462.89 -655 460 C-662.79 456.1 -673.8 456.64 -682.38 456.12 C-692.82 455.43 -703.18 454.35 -713.56 453 C-714.85 452.83 -716.14 452.67 -717.47 452.5 C-720.98 452.03 -724.49 451.53 -728 451 C-728.5 450.93 -728.5 450.93 -731.02 450.57 C-731.91 450.42 -732.8 450.28 -733.71 450.12 C-734.48 450 -735.24 449.88 -736.03 449.76 C-738.69 448.74 -739.57 447.43 -741 445 C-741.46 441.3 -741.67 439.03 -739.6 435.85 C-735.62 433.02 -731.68 433.12 -726.89 432.84 C-725.87 432.77 -724.86 432.69 -723.82 432.62 C-720.55 432.39 -717.27 432.19 -714 432 C-712.93 431.94 -711.86 431.87 -710.76 431.81 C-701.98 431.29 -693.21 430.82 -684.43 430.4 C-681.13 430.24 -677.82 430.06 -674.52 429.88 C-673.54 429.84 -672.56 429.79 -671.55 429.75 C-664.61 429.35 -657.49 428.61 -651 426 C-648.66 423.22 -647.88 420.51 -647 417 C-646.72 415.91 -646.43 414.83 -646.14 413.71 C-645.65 411.85 -645.17 410 -644.7 408.14 C-641.03 394.03 -634.8 380.84 -628 368 C-627.74 367.5 -627.74 367.5 -626.41 364.98 C-615.56 344.81 -603.14 325.76 -588.84 307.88 C-586.55 305.01 -584.38 302.12 -582.3 299.09 C-581.54 298.07 -580.78 297.05 -580 296 C-579.34 296 -578.68 296 -578 296 C-577.32 294.67 -576.66 293.34 -576 292 C-574.73 290.46 -573.41 288.97 -572.06 287.5 C-571.27 286.63 -570.47 285.76 -569.65 284.86 C-568.77 283.92 -567.9 282.97 -567 282 C-565.54 280.42 -564.09 278.84 -562.63 277.26 C-561.25 275.76 -559.87 274.26 -558.48 272.76 C-556 270 -556 270 -553.8 267.14 C-553.21 266.44 -552.61 265.73 -552 265 C-551.34 265 -550.68 265 -550 265 C-550 264.34 -550 263.68 -550 263 C-549.34 263 -548.68 263 -548 263 C-547.67 262.01 -547.34 261.02 -547 260 C-545.68 258.67 -545.68 258.67 -543.88 257.19 C-540.4 254.25 -537.08 251.2 -533.79 248.07 C-526.76 241.39 -519.53 235.2 -511.8 229.37 C-509.95 227.96 -508.11 226.54 -506.27 225.11 C-456.49 186.76 -396.55 160.18 -333.25 159.69 C-332.51 159.68 -331.78 159.67 -331.02 159.66 C-307.01 159.39 -283.9 165.04 -266 182 C-265.67 182.99 -265.34 183.98 -265 185 C-264.34 185 -263.68 185 -263 185 C-261.61 186.97 -260.36 188.93 -259.12 191 C-258.79 191.56 -258.79 191.56 -257.07 194.38 C-256.37 195.58 -255.68 196.79 -255 198 C-254.64 198.63 -254.28 199.26 -253.91 199.9 C-251.23 204.88 -250.03 209.54 -249.25 215.12 C-249.13 215.96 -249.01 216.79 -248.88 217.65 C-244.2 252.17 -257.76 282.78 -278 310 C-281.62 314.58 -285.47 318.94 -289.4 323.25 C-290.97 324.97 -292.52 326.7 -294.07 328.43 C-316.17 353.02 -343.44 372.43 -371.99 388.84 C-373.85 389.92 -375.71 391.02 -377.55 392.12 C-385.34 396.73 -393.28 400.48 -401.58 404.04 C-404.74 405.41 -407.82 406.9 -410.9 408.46 C-415.96 411.02 -421.12 413.24 -426.38 415.38 C-427.32 415.76 -428.27 416.15 -429.25 416.54 C-438 420.07 -446.86 423.24 -455.8 426.26 C-457.74 426.91 -459.67 427.59 -461.6 428.26 C-478.29 434.03 -495.4 438.82 -512.62 442.69 C-527.82 446.2 -527.82 446.2 -532 450 C-534.31 456.58 -532.3 463.29 -531 470 C-530.85 470.94 -530.71 471.89 -530.56 472.86 C-529.53 479.38 -527.71 484.99 -525 491 C-524.86 491.32 -524.86 491.32 -524.16 492.92 C-513.12 518.12 -495.04 538.27 -469.59 549.5 C-460.59 552.96 -451.48 554.56 -442 556 C-441.48 556.09 -441.48 556.09 -438.84 556.56 C-393.26 563.65 -343.14 533.07 -308.03 507.5 C-299.6 501.27 -291.51 494.79 -283.89 487.58 C-282 486 -282 486 -280 486 C-280 485.34 -280 484.68 -280 484 C-278.36 482.38 -278.36 482.38 -276.19 480.56 C-272.15 477.16 -272.15 477.16 -270.36 475.28 C-269 474 -269 474 -267 474 C-267 473.34 -267 472.68 -267 472 C-265.36 470.64 -263.68 469.31 -262 468 C-259.29 465.43 -256.86 462.83 -254.5 459.94 C-252 457 -252 457 -249.56 455.06 C-242.03 449 -239.54 442.81 -237.06 433.56 C-236.73 432.37 -236.39 431.18 -236.05 429.95 C-235.35 427.49 -234.67 425.03 -233.99 422.56 C-232.8 418.3 -231.56 414.05 -230.3 409.8 C-227.61 400.7 -225.04 391.58 -222.5 382.44 C-220.3 374.5 -217.99 366.61 -215.56 358.75 C-212.45 348.67 -209.62 338.51 -206.84 328.33 C-203.71 316.9 -200.37 305.54 -196.94 294.18 C-196.17 291.62 -195.4 289.06 -194.62 286.5 C-194.53 286.18 -194.53 286.18 -194.04 284.54 C-190.74 273.59 -187.61 262.59 -184.55 251.56 C-183.04 246.1 -181.45 240.67 -179.84 235.24 C-178.21 229.75 -176.63 224.25 -175.06 218.75 C-174.81 217.86 -174.56 216.97 -174.29 216.06 C-173.29 212.54 -172.29 209.03 -171.29 205.52 C-168.29 194.98 -165.26 184.45 -162.2 173.93 C-160.47 167.95 -158.73 161.98 -157 156 C-156.64 154.76 -156.28 153.52 -155.91 152.25 C-152.35 139.92 -148.83 127.59 -145.56 115.19 C-145.32 114.26 -145.07 113.33 -144.81 112.37 C-142.78 104.55 -141.8 97.07 -141.75 89 C-141.73 88.23 -141.71 87.46 -141.69 86.67 C-141.65 80.62 -142.58 75.9 -146.58 71.11 C-154.23 64.89 -161.64 62.97 -171.39 62.75 C-172.6 62.72 -173.8 62.69 -175.04 62.65 C-177.54 62.59 -180.05 62.54 -182.55 62.48 C-189.28 62.29 -195.54 61.99 -202 60 C-204 57 -204 57 -203.88 54 C-202.83 50.42 -202.09 49.94 -199 48 C-186.55 42.59 -173.06 39.76 -159.94 36.49 C-158.9 36.23 -157.86 35.98 -156.79 35.71 C-154.8 35.21 -152.8 34.72 -150.8 34.23 C-145.66 32.96 -140.57 31.6 -135.49 30.12 C-128.45 28.11 -121.38 26.27 -114.28 24.5 C-113.02 24.19 -111.76 23.87 -110.46 23.55 C-107.82 22.89 -105.17 22.22 -102.52 21.56 C-99.19 20.74 -95.87 19.9 -92.55 19.07 C-79.5 15.8 -66.45 12.59 -53.33 9.66 C-45.92 7.99 -38.55 6.19 -31.19 4.31 C-4.78 -2.39 -4.78 -2.39 0 0 Z M-417 231 C-417.26 231.21 -417.26 231.21 -418.6 232.29 C-430.31 241.8 -440.63 252.14 -450 264 C-450.65 264.8 -451.31 265.6 -451.98 266.42 C-472.95 292.08 -490.44 321.71 -503.36 352.18 C-504.7 355.34 -506.14 358.44 -507.62 361.53 C-524.01 395.77 -524.01 395.77 -525 412 C-501.23 418.06 -459.42 391.34 -439.57 379.56 C-421.96 368.88 -405.55 357.01 -390.32 343.1 C-388.29 341.27 -386.22 339.51 -384.12 337.75 C-362.57 318.83 -338.81 288.34 -335 259 C-334.81 255.42 -334.77 251.84 -334.75 248.25 C-334.73 247.31 -334.71 246.37 -334.69 245.41 C-334.63 235.04 -336.92 226.72 -344 219 C-351.82 211.24 -359.66 209.69 -370.23 209.69 C-388 210.02 -403.6 220.11 -417 231 Z " fill="#F5F5F5" transform="translate(1319,4)"/>
<path d="M0 0 C3.81 0.01 7.61 0.01 11.42 0.01 C35.35 0.01 59.25 0.38 83.16 1.2 C84.22 1.23 85.27 1.27 86.36 1.3 C156.62 3.68 238.36 19.57 288.47 72.34 C292.43 76.68 295.88 81.33 299.16 86.2 C299.71 86.99 300.26 87.78 300.83 88.6 C310.87 104.07 314.38 121.91 314.29 140.07 C314.28 141.05 314.28 142.02 314.27 143.02 C314.17 154.86 312.79 164.86 309.16 176.2 C308.83 177.3 308.49 178.4 308.14 179.53 C300.62 202.42 286.62 223.19 270.37 240.8 C268.88 242.42 267.41 244.06 265.95 245.72 C252.83 260.68 236.75 273.27 220.16 284.2 C219.07 284.92 217.97 285.65 216.84 286.39 C170.26 316.95 119.18 336.14 66.16 352.2 C65.3 352.46 64.43 352.72 63.54 352.99 C57.59 354.8 51.61 356.49 45.6 358.13 C44.65 358.39 43.7 358.65 42.71 358.92 C36.13 360.7 29.53 362.34 22.89 363.86 C17.27 365.16 11.71 366.62 6.16 368.2 C5.43 368.4 4.7 368.61 3.94 368.82 C2.35 369.28 0.76 369.74 -0.84 370.2 C-0.84 372.37 -0.84 372.37 0.16 375.2 C2.65 377.29 5.46 378.8 8.29 380.38 C9.95 381.35 11.6 382.33 13.26 383.3 C14.09 383.79 14.92 384.28 15.78 384.78 C21.74 388.32 27.45 392.27 33.16 396.2 C33.84 396.66 34.51 397.12 35.21 397.59 C44.59 404.01 53.55 410.79 62.31 418.03 C65.97 421.06 69.72 423.98 73.48 426.88 C78.92 431.11 84.03 435.59 89.05 440.3 C91.16 442.2 91.16 442.2 93.16 443.2 C93.16 443.86 93.16 444.52 93.16 445.2 C94.49 445.87 95.83 446.53 97.16 447.2 C98.74 448.53 100.28 449.91 101.79 451.32 C106.13 455.32 110.63 458.99 115.33 462.57 C115.93 463.1 116.54 463.64 117.16 464.2 C117.16 464.86 117.16 465.52 117.16 466.2 C118.49 466.87 119.83 467.54 121.16 468.2 C122.72 469.51 124.24 470.87 125.73 472.26 C129.24 475.49 132.82 478.58 136.54 481.57 C140.55 484.82 144.39 488.18 148.16 491.7 C153.64 496.78 159.34 501.52 165.16 506.2 C166.42 507.22 167.67 508.24 168.92 509.26 C195.35 530.85 222.56 551 251.76 568.73 C253.96 570.07 256.14 571.42 258.33 572.77 C265.25 577.01 272.27 580.9 279.58 584.45 C282.07 585.66 284.54 586.89 287 588.16 C295.91 592.73 304.94 596.71 314.24 600.42 C317 601.53 319.74 602.71 322.48 603.88 C327.34 605.92 332.27 607.61 337.28 609.22 C340.03 610.15 342.68 611.2 345.35 612.32 C349.18 613.89 352.9 614.94 356.96 615.7 C359.77 616.33 362.43 617.28 365.16 618.2 C376.34 621.42 387.67 624.39 399.16 626.2 C400.03 626.33 400.9 626.47 401.8 626.61 C434.71 631.53 473.33 633.16 505.16 622.2 C505.78 622 505.78 622 508.91 621 C517.93 618.13 526.66 614.73 535.26 610.77 C547.1 605.46 547.1 605.46 553.16 607.2 C556.68 610.13 557.94 612.01 558.79 616.51 C557.2 625.88 550.75 632.23 544.16 638.63 C543.32 639.47 542.47 640.3 541.6 641.16 C535.14 647.42 528.57 653.07 521.16 658.2 C520.59 658.6 520.02 658.99 519.43 659.41 C504.43 669.86 488.81 678.7 472.18 686.27 C470.54 687.02 468.91 687.8 467.29 688.59 C451.04 696.39 433.54 701.56 416.16 706.2 C415.04 706.5 413.91 706.81 412.75 707.13 C409.89 707.87 407.04 708.55 404.16 709.2 C403.62 709.32 403.62 709.32 400.87 709.97 C378.75 714.68 355.98 714.39 333.48 714.45 C332.36 714.45 331.25 714.46 330.1 714.46 C306.77 714.55 283.98 713.23 261.16 708.2 C260.35 708.02 259.53 707.85 258.68 707.67 C232.16 702.01 206.92 693.12 182.16 682.2 C181.71 682 181.71 682 179.42 680.99 C159.7 672.25 141.03 661.25 123.16 649.2 C122.6 648.81 122.03 648.43 121.44 648.04 C108.8 639.55 96.59 630.42 84.97 620.56 C82.17 618.2 79.33 615.92 76.48 613.63 C72.14 610.1 68.19 606.33 64.28 602.32 C60.49 598.51 56.39 595.04 52.25 591.61 C48.77 588.69 45.99 585.77 43.16 582.2 C42.4 581.6 41.64 581 40.85 580.38 C37.86 577.95 35.55 575.26 33.05 572.34 C31.16 570.2 29.2 568.19 27.16 566.2 C23.99 563.07 21.04 559.83 18.14 556.45 C16.2 554.24 14.21 552.07 12.21 549.92 C7.42 544.76 2.89 539.47 -1.52 533.98 C-4.05 530.94 -6.7 528.03 -9.4 525.13 C-13.37 520.87 -17.09 516.47 -20.68 511.89 C-23.3 508.61 -26.03 505.43 -28.77 502.26 C-32.35 498.11 -35.89 493.95 -39.34 489.7 C-44.21 483.7 -49.24 477.86 -54.28 472.01 C-55.84 470.19 -57.4 468.37 -58.95 466.54 C-65.7 458.63 -72.53 450.82 -79.61 443.21 C-80.08 442.71 -80.54 442.2 -81.02 441.69 C-82.33 440.27 -83.65 438.86 -84.97 437.45 C-86.84 435.2 -86.84 435.2 -86.84 433.2 C-87.43 432.9 -88.03 432.6 -88.64 432.29 C-91.11 431.06 -92.25 429.78 -93.96 427.63 C-96.64 424.29 -96.64 424.29 -98.84 423.2 C-98.84 422.54 -98.84 421.88 -98.84 421.2 C-99.83 420.87 -100.82 420.54 -101.84 420.2 C-101.84 419.54 -101.84 418.88 -101.84 418.2 C-102.4 417.91 -102.96 417.63 -103.54 417.34 C-106.4 415.91 -108.23 414.04 -110.52 411.82 C-117.74 405.15 -125.7 399.67 -133.84 394.2 C-134.77 393.56 -135.7 392.93 -136.66 392.28 C-145.51 386.59 -157.1 381.01 -167.84 383.2 C-171.36 384.34 -174.24 385.52 -176.84 388.2 C-180.13 395.14 -181.2 403.15 -182.65 410.63 C-182.91 411.96 -183.17 413.28 -183.43 414.6 C-187.81 437.07 -191.68 459.62 -195.09 482.26 C-195.21 483.08 -195.34 483.91 -195.46 484.76 C-197.83 500.46 -200.01 516.06 -200.46 531.95 C-200.48 532.5 -200.48 532.5 -200.58 535.29 C-200.83 542.92 -200.89 550.55 -200.84 558.2 C-200.83 559 -200.83 559.8 -200.82 560.63 C-200.59 578.22 -196.9 595.82 -184.46 609.07 C-173.75 618.88 -160.76 623.46 -147.1 627.61 C-138.53 630.31 -138.53 630.31 -135.84 634.2 C-135.37 638.6 -135.36 640.48 -137.84 644.2 C-140.85 644.71 -140.85 644.71 -144.8 644.91 C-145.53 644.94 -146.25 644.98 -147 645.02 C-149.44 645.15 -151.89 645.25 -154.33 645.35 C-156.08 645.43 -157.83 645.51 -159.58 645.59 C-180.9 646.51 -202.23 646.61 -223.56 646.74 C-229.24 646.77 -234.91 646.82 -240.59 646.87 C-241.16 646.87 -241.16 646.87 -244.02 646.9 C-246.3 646.91 -248.57 646.93 -250.85 646.95 C-254.22 646.98 -257.59 647.01 -260.96 647.03 C-279.28 647.18 -297.59 647.4 -315.9 647.7 C-317.11 647.71 -318.32 647.73 -319.57 647.75 C-331.71 647.93 -343.83 648.23 -355.95 648.82 C-370.28 649.52 -384.62 649.8 -398.96 650.09 C-402.78 650.17 -406.6 650.27 -410.42 650.38 C-413.62 650.46 -416.82 650.52 -420.02 650.57 C-421.16 650.61 -422.3 650.65 -423.47 650.69 C-431.05 650.77 -431.05 650.77 -435.02 647.89 C-437.29 644.53 -437.76 642.24 -437.84 638.2 C-437.32 635.7 -437.32 635.7 -435.84 633.2 C-433.26 631.81 -430.92 630.73 -428.21 629.7 C-423.59 627.82 -419.2 626.02 -415.02 623.26 C-411.84 621.2 -411.84 621.2 -408.84 621.2 C-408.84 620.54 -408.84 619.88 -408.84 619.2 C-407 618 -407 618 -404.46 616.63 C-385.66 605.67 -373.71 585.52 -364.84 566.2 C-364.38 565.24 -363.93 564.28 -363.46 563.29 C-348.94 531.29 -341.88 495.93 -334.6 461.73 C-333.5 456.62 -332.33 451.53 -331.15 446.45 C-329.45 439.04 -327.89 431.62 -326.43 424.16 C-323.31 408.37 -320.15 392.56 -315.82 377.04 C-314.54 372.02 -313.5 366.96 -312.46 361.88 C-309.29 346.37 -306 330.84 -301.77 315.57 C-300 309.15 -298.66 302.66 -297.34 296.13 C-295.81 288.62 -294.09 281.28 -291.87 273.94 C-290.48 268.92 -289.42 263.85 -288.34 258.76 C-286.72 251.14 -284.94 243.64 -282.87 236.13 C-281.54 231.19 -280.45 226.19 -279.34 221.2 C-277.68 213.79 -275.88 206.48 -273.87 199.17 C-272.54 194.19 -271.45 189.16 -270.34 184.13 C-268.75 177.03 -267 170.03 -264.92 163.05 C-263.65 158.65 -262.63 154.19 -261.6 149.73 C-259.07 138.99 -256.3 128.32 -253.44 117.66 C-252.63 114.64 -251.83 111.62 -251.03 108.61 C-250.52 106.67 -250 104.73 -249.48 102.79 C-249.24 101.9 -249.01 101 -248.76 100.08 C-248.14 97.78 -247.5 95.49 -246.84 93.2 C-246.57 92.22 -246.31 91.24 -246.03 90.23 C-244.26 87.22 -242.35 86.97 -239.03 86.09 C-237.86 85.77 -236.68 85.45 -235.47 85.12 C-234.27 84.81 -233.07 84.51 -231.84 84.2 C-230.79 83.91 -229.73 83.63 -228.65 83.34 C-195.4 74.63 -161.09 69.64 -126.84 67.2 C-125.54 67.1 -124.25 67.01 -122.92 66.91 C-116.4 66.45 -109.93 66.07 -103.4 66.13 C-102.14 66.14 -100.89 66.15 -99.59 66.16 C-99.14 66.17 -99.14 66.17 -96.84 66.2 C-94.33 73.73 -98.63 83.25 -100.74 90.69 C-102.52 96.95 -104.14 103.25 -105.71 109.57 C-105.84 110.07 -105.84 110.07 -106.46 112.59 C-106.98 114.68 -107.5 116.78 -108.01 118.87 C-109.49 124.83 -110.97 130.8 -112.46 136.76 C-112.74 137.87 -113.02 138.99 -113.3 140.14 C-114.75 145.94 -116.24 151.73 -117.8 157.5 C-119.95 165.54 -121.9 173.61 -123.84 181.7 C-124.5 184.48 -125.17 187.26 -125.84 190.04 C-126.13 191.25 -126.41 192.46 -126.71 193.7 C-127.66 197.56 -128.69 201.39 -129.72 205.23 C-131.82 213.05 -133.77 220.91 -135.7 228.77 C-136.06 230.23 -136.42 231.69 -136.78 233.15 C-137.71 236.96 -138.65 240.77 -139.58 244.58 C-141.06 250.61 -142.55 256.64 -144.03 262.67 C-144.39 264.15 -144.76 265.63 -145.12 267.12 C-147.89 278.39 -150.69 289.66 -153.53 300.91 C-155.37 308.26 -157.13 315.63 -158.84 323.01 C-159.06 323.98 -159.29 324.95 -159.52 325.96 C-160.67 331.05 -161.14 335.1 -159.84 340.2 C-156.74 341.74 -153.45 341.4 -150.05 341.43 C-149.26 341.44 -148.46 341.45 -147.64 341.46 C-145.02 341.49 -142.4 341.5 -139.77 341.51 C-138.88 341.51 -137.99 341.51 -137.06 341.52 C-110.37 341.54 -83.67 338.44 -57.91 331.3 C-52.3 329.75 -46.63 328.4 -40.98 327.03 C10.19 314.47 60.11 288.01 99.67 253.49 C100.91 252.42 102.15 251.36 103.4 250.3 C107.66 246.68 111.64 242.82 115.6 238.88 C116.13 238.35 116.67 237.83 117.22 237.28 C121.04 233.44 121.04 233.44 122.16 231.2 C122.82 231.2 123.48 231.2 124.16 231.2 C124.85 229.87 125.51 228.53 126.16 227.2 C127.66 225.21 129.18 223.26 130.73 221.32 C152.3 193.63 163.92 162.07 159.86 126.57 C156.3 105.37 143.11 88.38 126.04 76.13 C118.73 71 111.3 66.9 103.16 63.2 C102.72 62.98 102.72 62.98 100.48 61.88 C79.08 51.53 54.63 46.15 31.16 43.2 C30.16 43.07 29.17 42.94 28.14 42.8 C-2.06 38.95 -32.44 38.86 -62.84 39.2 C-64.12 39.21 -65.4 39.22 -66.72 39.23 C-98.77 39.64 -131.16 42.26 -162.84 47.2 C-163.56 47.31 -164.29 47.42 -165.04 47.54 C-195.71 52.27 -226.22 57.33 -256.2 65.49 C-260.48 66.64 -264.78 67.7 -269.09 68.76 C-275.82 70.43 -282.55 72.13 -289.27 73.88 C-290.06 74.09 -290.85 74.29 -291.66 74.5 C-295.52 75.51 -299.14 76.68 -302.84 78.2 C-304.89 78.8 -306.96 79.38 -309.02 79.95 C-320.31 83.13 -331.53 86.69 -342.36 91.2 C-345.46 92.45 -348.61 93.53 -351.77 94.63 C-356.93 96.46 -361.9 98.48 -366.85 100.81 C-369.14 101.87 -371.44 102.9 -373.76 103.89 C-380.42 106.75 -386.94 109.56 -393.14 113.35 C-394.84 114.2 -394.84 114.2 -397.84 114.2 C-397.84 114.86 -397.84 115.52 -397.84 116.2 C-404.51 120.6 -412.52 125.27 -420.65 125.13 C-423.84 124.2 -423.84 124.2 -425.77 122.57 C-427.29 119.18 -427.27 116.89 -426.84 113.2 C-418.85 94.44 -392.98 81.47 -375.67 73.1 C-373.27 71.92 -370.9 70.66 -368.53 69.42 C-338.01 53.65 -304.02 42.77 -270.84 34.2 C-269.86 33.94 -268.89 33.69 -267.89 33.42 C-241.43 26.54 -214.73 21.03 -187.84 16.2 C-186.95 16.03 -186.06 15.87 -185.14 15.71 C-171.61 13.28 -157.98 11.52 -144.37 9.68 C-140.84 9.2 -137.32 8.68 -133.81 8.17 C-126.91 7.18 -120.01 6.41 -113.09 5.7 C-110.8 5.46 -108.51 5.22 -106.23 4.98 C-105.11 4.86 -103.99 4.74 -102.84 4.62 C-100.16 4.34 -97.48 4.04 -94.8 3.72 C-84.22 2.47 -73.65 1.61 -63 1.08 C-62.59 1.06 -62.59 1.06 -60.52 0.96 C-40.35 -0.05 -20.19 -0.07 0 0 Z " fill="#F5F5F5" transform="translate(438.8365478515625,47.80438232421875)"/>
</svg>