<svg version="1.1" xmlns="http://www.w3.org/2000/svg" width="100%" height="auto" viewBox="0 0 1500 1114">
<path d="M0 0 C2.78 0.06 5.56 0.12 8.34 0.18 C24.72 0.53 41.08 1.15 57.45 2.07 C58.21 2.11 58.97 2.15 59.76 2.19 C61.91 2.31 64.05 2.44 66.19 2.57 C66.81 2.6 66.81 2.6 69.9 2.79 C72.42 3.01 74.58 3.41 77.01 4.07 C80.21 4.32 83.41 4.51 86.61 4.67 C89.63 4.85 92.13 5.11 95.01 6.07 C96.81 6.32 98.62 6.53 100.43 6.71 C101.51 6.83 102.59 6.95 103.71 7.07 C104.86 7.19 106.01 7.31 107.2 7.44 C116.52 8.48 125.63 9.78 134.82 11.64 C137.44 12.15 140.07 12.6 142.71 13.04 C143.72 13.21 144.73 13.38 145.77 13.55 C147.74 13.88 149.71 14.21 151.68 14.53 C157.35 15.49 162.81 16.78 168.34 18.35 C171.69 19.25 175.06 19.9 178.47 20.56 C201.79 25.23 225.89 31.77 247.46 41.89 C249.83 42.98 252.2 43.95 254.64 44.88 C272.73 52.06 290.45 61.31 306.01 73.07 C306.73 73.59 307.44 74.12 308.18 74.66 C313.39 78.58 318.19 82.88 322.94 87.33 C325.22 89.47 327.4 91.33 330.01 93.07 C330.01 93.73 330.01 94.39 330.01 95.07 C330.67 95.07 331.33 95.07 332.01 95.07 C333.67 96.68 333.67 96.68 335.51 98.82 C336.12 99.51 336.73 100.21 337.35 100.93 C339.01 103.07 339.01 103.07 340.1 105.33 C340.25 105.62 340.25 105.62 341.01 107.07 C341.67 107.07 342.33 107.07 343.01 107.07 C344.8 109.05 346.44 111.03 348.07 113.13 C348.32 113.44 348.32 113.44 349.56 115.04 C375.92 149.65 381.73 190.21 376.37 232.63 C375.48 238.61 373.86 244.32 372.01 250.07 C371.61 251.35 371.21 252.64 370.82 253.93 C368.4 261.58 365.47 268.83 362.01 276.07 C361.46 277.29 360.92 278.52 360.37 279.75 C352.61 297.09 343.02 313.34 331.01 328.07 C329.2 330.39 327.42 332.73 325.64 335.07 C324.1 337.07 322.56 339.07 321.01 341.07 C320.65 341.54 320.65 341.54 318.85 343.94 C318.24 344.64 317.64 345.34 317.01 346.07 C316.35 346.07 315.69 346.07 315.01 346.07 C314.74 346.62 314.47 347.17 314.19 347.74 C312.63 350.82 310.51 352.83 308.07 355.27 C307.59 355.75 307.11 356.23 306.62 356.73 C305.6 357.75 304.59 358.76 303.57 359.77 C302.01 361.32 300.46 362.88 298.91 364.44 C297.92 365.43 296.94 366.41 295.95 367.39 C295.05 368.29 294.15 369.19 293.23 370.11 C291.01 372.07 291.01 372.07 289.01 372.07 C289.01 372.73 289.01 373.39 289.01 374.07 C287.61 375.51 287.61 375.51 285.64 377.19 C284.91 377.81 284.17 378.43 283.42 379.07 C279.33 382.46 275.18 385.78 271.01 389.07 C270.16 389.75 269.32 390.43 268.44 391.13 C267.64 391.77 266.84 392.41 266.01 393.07 C265.29 393.64 264.57 394.22 263.82 394.82 C262.01 396.07 262.01 396.07 260.01 396.07 C260.01 396.73 260.01 397.39 260.01 398.07 C257.98 399.64 257.98 399.64 255.15 401.48 C254.11 402.16 253.08 402.84 252.02 403.54 C250.92 404.25 249.83 404.96 248.7 405.69 C241.5 410.39 234.41 415.14 227.53 420.3 C224.03 422.75 220.34 424.72 216.56 426.7 C214.31 427.91 212.16 429.19 210.01 430.57 C205.15 433.66 200.09 436.35 195.01 439.07 C193.72 439.77 192.42 440.47 191.12 441.17 C181.24 446.49 171.2 451.37 161.01 456.07 C158.36 457.29 155.72 458.52 153.07 459.75 C152.76 459.9 152.76 459.9 151.18 460.63 C147.73 462.24 144.33 463.92 140.95 465.69 C135.89 468.27 130.61 470.04 125.25 471.88 C122.71 472.81 120.44 473.78 118.07 475.07 C113.8 477.35 109.23 478.73 104.64 480.21 C100.25 481.64 95.99 483.22 91.73 484.96 C82.79 488.59 73.87 491.98 64.52 494.36 C61.08 495.33 57.85 496.72 54.55 498.09 C51.05 499.43 47.48 500.36 43.85 501.26 C40.9 502.1 38.08 503.18 35.22 504.27 C31.22 505.71 27.11 506.81 23.01 507.94 C16.64 509.73 10.31 511.58 4.01 513.63 C-3.02 515.89 -10.16 517.6 -17.35 519.26 C-22.26 520.4 -27.1 521.63 -31.93 523.07 C-37.92 524.84 -43.96 526.22 -50.05 527.57 C-58.17 529.37 -66.13 531.32 -73.99 534.07 C-74.46 534.2 -74.46 534.2 -76.83 534.87 C-77.54 535.26 -78.25 535.66 -78.99 536.07 C-79.42 538.42 -79.42 538.42 -78.99 541.07 C-77.02 542.92 -77.02 542.92 -74.27 544.62 C-73.78 544.94 -73.78 544.94 -71.25 546.54 C-70.2 547.19 -69.14 547.84 -68.05 548.5 C-66 549.79 -63.95 551.08 -61.9 552.38 C-60.9 553 -59.9 553.62 -58.87 554.25 C-55.51 556.37 -52.22 558.56 -48.94 560.8 C-46.95 562.09 -44.91 563.22 -42.8 564.32 C-36.73 567.61 -31.23 571.78 -25.66 575.85 C-24.21 576.9 -22.76 577.95 -21.31 579 C-18.53 581.01 -15.76 583.04 -12.99 585.07 C-12.28 585.58 -11.57 586.1 -10.84 586.63 C-1.35 593.55 8.01 600.51 17.01 608.07 C18.8 609.53 20.59 610.98 22.39 612.44 C28.1 617.12 33.73 621.88 39.36 626.66 C41.52 628.49 43.68 630.32 45.84 632.15 C48.57 634.45 51.29 636.76 54.01 639.07 C54.59 639.56 55.17 640.05 55.77 640.56 C61.83 645.7 67.84 650.87 73.7 656.25 C78.07 660.27 82.6 664.03 87.23 667.75 C91.21 671.06 95 674.57 98.8 678.1 C101.01 680.07 101.01 680.07 103.01 681.07 C103.01 681.73 103.01 682.39 103.01 683.07 C103.56 683.34 104.11 683.62 104.68 683.9 C107.7 685.41 109.79 687.45 112.26 689.75 C113.25 690.67 114.23 691.58 115.22 692.49 C116.14 693.34 117.06 694.19 118.01 695.07 C122.85 699.41 127.81 703.61 132.76 707.82 C133.04 708.05 133.04 708.05 134.44 709.25 C136.72 711.17 138.98 713.04 141.4 714.77 C141.93 715.2 142.46 715.63 143.01 716.07 C143.01 716.73 143.01 717.39 143.01 718.07 C144.33 718.77 145.66 719.43 147.01 720.07 C148.13 720.93 149.23 721.84 150.29 722.78 C150.88 723.3 151.48 723.82 152.1 724.36 C152.71 724.9 153.32 725.45 153.95 726 C160.35 731.67 160.35 731.67 163.95 733.82 C164.63 734.23 165.31 734.64 166.01 735.07 C166.01 735.73 166.01 736.39 166.01 737.07 C167.33 737.75 168.67 738.41 170.01 739.07 C171.28 739.88 172.53 740.71 173.76 741.57 C174.37 741.99 174.99 742.41 175.62 742.85 C176.08 743.25 176.54 743.65 177.01 744.07 C177.01 744.73 177.01 745.39 177.01 746.07 C178.33 746.76 179.67 747.42 181.01 748.07 C182.58 749.24 184.12 750.45 185.64 751.69 C186.51 752.4 187.39 753.11 188.3 753.85 C190.05 755.28 191.81 756.72 193.57 758.16 C198.35 762.04 203.16 765.6 208.39 768.84 C208.93 769.24 209.46 769.65 210.01 770.07 C210.01 770.73 210.01 771.39 210.01 772.07 C210.69 772.31 211.37 772.56 212.07 772.82 C215.49 774.27 217.66 776.23 220.36 778.73 C222.01 780.07 222.01 780.07 225.01 781.07 C225.01 781.73 225.01 782.39 225.01 783.07 C226.67 783.74 228.34 784.41 230.01 785.07 C232.33 786.52 234.58 788 236.82 789.57 C237.42 789.97 238.02 790.37 238.63 790.79 C240.13 791.83 241.58 792.94 243.01 794.07 C243.01 794.73 243.01 795.39 243.01 796.07 C243.57 796.17 244.14 796.28 244.71 796.38 C247.43 797.19 249.4 798.43 251.76 800 C252.56 800.53 253.36 801.05 254.18 801.59 C254.48 801.84 254.48 801.84 256.01 803.07 C256.01 803.73 256.01 804.39 256.01 805.07 C256.58 805.17 257.14 805.28 257.72 805.39 C260.39 806.18 262.31 807.36 264.65 808.88 C265.55 809.45 266.45 810.03 267.37 810.62 C268.33 811.25 269.28 811.87 270.26 812.5 C272.25 813.78 274.24 815.06 276.23 816.34 C277.21 816.98 278.2 817.61 279.21 818.26 C283.02 820.72 286.86 823.15 290.7 825.57 C291.28 825.94 291.87 826.31 292.47 826.69 C301.78 832.54 311.63 837.46 321.39 842.5 C328.17 846.01 334.93 849.54 341.64 853.19 C345.69 855.39 349.74 857.31 354.01 859.07 C356.05 860.02 358.1 860.98 360.14 861.94 C365.7 864.53 371.34 866.76 377.08 868.91 C379.55 869.89 381.85 870.95 384.2 872.19 C387.81 874.09 391.49 875.2 395.42 876.26 C398 877.06 400.41 878.11 402.88 879.2 C407.48 881.07 412.23 882.53 416.95 884.07 C428.73 887.93 428.73 887.93 433.37 889.73 C436.68 890.94 439.82 891.79 443.26 892.5 C447.59 893.45 451.71 894.59 455.89 896.07 C461.62 898.06 467.37 899.23 473.33 900.34 C476.73 901.01 480.04 901.81 483.39 902.69 C488.27 903.96 492.99 904.58 498.01 905.07 C498.34 905.23 498.34 905.23 500.01 906.07 C502.34 906.44 504.67 906.76 507.01 907.07 C508.27 907.23 509.53 907.4 510.82 907.57 C513.78 907.93 516.74 908.24 519.7 908.53 C522.98 908.86 526.25 909.2 529.51 909.59 C542.76 911.12 555.87 911.38 569.2 911.32 C569.74 911.32 569.74 911.32 572.46 911.31 C630.95 911.13 630.95 911.13 637.01 905.07 C638.19 904.94 639.36 904.82 640.57 904.69 C644.23 904.28 647.32 903.28 650.75 901.88 C653.46 900.9 656.2 900.28 659.01 899.63 C663.29 898.6 666.81 897.32 670.65 895.23 C673.87 893.65 677.21 892.43 680.57 891.19 C686.12 889.15 691.64 887.07 697.14 884.88 C698.31 884.41 699.49 883.94 700.71 883.46 C704.01 882.07 704.01 882.07 707.19 880.44 C712.79 877.71 719.02 877.37 725.01 879.07 C727.95 881.19 728.75 881.82 730.01 885.07 C730.79 891.17 731.45 898.42 728.39 904 C727.99 904.51 727.99 904.51 726.01 907.07 C725.76 907.43 725.76 907.43 724.48 909.25 C721.6 913.32 721.6 913.32 720.01 915.07 C719.35 915.07 718.69 915.07 718.01 915.07 C717.75 915.61 717.5 916.15 717.23 916.71 C715.55 919.95 713.09 922.28 710.51 924.82 C710.01 925.32 709.51 925.83 709 926.35 C705.26 930.07 705.26 930.07 703.01 930.07 C703.01 930.73 703.01 931.39 703.01 932.07 C702.35 932.07 701.69 932.07 701.01 932.07 C701.01 932.73 701.01 933.39 701.01 934.07 C699.11 935.79 699.11 935.79 696.64 937.69 C695.82 938.32 695.01 938.95 694.18 939.61 C692.01 941.07 692.01 941.07 690.01 941.07 C690.01 941.73 690.01 942.39 690.01 943.07 C688.67 944.3 688.67 944.3 686.8 945.67 C686.47 945.91 686.47 945.91 684.78 947.15 C684.07 947.66 683.36 948.17 682.64 948.69 C681.94 949.21 681.24 949.72 680.52 950.25 C675.27 954.07 675.27 954.07 673.01 954.07 C673.01 954.73 673.01 955.39 673.01 956.07 C670.64 957.7 668.28 959.21 665.82 960.69 C665.1 961.14 664.37 961.58 663.63 962.04 C662.14 962.95 660.65 963.86 659.15 964.76 C657.23 965.93 655.32 967.11 653.41 968.29 C651.25 969.62 649.1 970.95 646.94 972.27 C645.15 973.37 643.36 974.48 641.58 975.61 C634.35 980.14 626.66 983.6 618.93 987.17 C616.56 988.28 614.22 989.44 611.89 990.63 C601.57 995.82 591.45 1000.44 580.44 1003.95 C576.73 1005.16 573.15 1006.56 569.55 1008.04 C561.1 1011.45 552.54 1014.17 543.76 1016.57 C542.66 1016.87 541.56 1017.17 540.43 1017.48 C538.26 1018.08 536.09 1018.67 533.92 1019.27 C531.5 1019.93 529.07 1020.61 526.65 1021.3 C519.31 1023.35 511.99 1024.9 504.47 1026.12 C499.19 1026.98 499.19 1026.98 497.01 1028.07 C442.06 1039.06 374.31 1039.92 319.47 1027.81 C316.22 1027.11 312.98 1026.54 309.7 1025.99 C302.34 1024.77 295.2 1023.17 288 1021.16 C284.31 1020.13 280.58 1019.21 276.85 1018.31 C263.12 1014.96 249.24 1011.49 236.22 1005.93 C233.72 1004.95 231.23 1004.29 228.64 1003.63 C223.62 1002.32 218.99 1000.5 214.23 998.45 C211.37 997.22 208.49 996.06 205.59 994.93 C197.97 991.95 190.55 988.63 183.17 985.1 C180.75 983.94 178.32 982.81 175.89 981.68 C166.86 977.46 157.99 973.14 149.41 968.05 C146.56 966.39 143.69 964.79 140.78 963.22 C126.09 955.24 111.73 946.64 98.01 937.07 C97.46 936.68 96.9 936.29 96.33 935.89 C92.19 933 88.09 930.04 84.01 927.07 C83.25 926.51 82.49 925.96 81.71 925.39 C64.92 913.15 64.92 913.15 57.45 907.04 C55.56 905.51 53.65 904.01 51.73 902.53 C44.76 897.15 38.12 891.58 31.7 885.57 C27.11 881.29 22.4 877.18 17.51 873.25 C16.69 872.53 15.86 871.81 15.01 871.07 C15.01 870.41 15.01 869.75 15.01 869.07 C14.47 868.8 13.92 868.53 13.37 868.26 C10.23 866.67 7.88 864.4 5.34 862.01 C5.06 861.75 5.06 861.75 3.65 860.43 C-3.39 853.81 -10.24 847 -17.07 840.17 C-19.34 837.9 -21.62 835.65 -23.89 833.39 C-25.34 831.94 -26.78 830.5 -28.23 829.06 C-28.91 828.38 -29.59 827.71 -30.29 827.02 C-30.91 826.39 -31.53 825.77 -32.17 825.13 C-32.71 824.59 -33.26 824.04 -33.82 823.48 C-34.99 822.07 -34.99 822.07 -34.99 820.07 C-35.65 820.07 -36.31 820.07 -36.99 820.07 C-38.65 818.46 -38.65 818.46 -40.49 816.32 C-40.79 815.97 -40.79 815.97 -42.33 814.21 C-43.99 812.07 -43.99 812.07 -45.08 809.8 C-45.38 809.23 -45.68 808.66 -45.99 808.07 C-46.65 808.07 -47.31 808.07 -47.99 808.07 C-47.99 807.41 -47.99 806.75 -47.99 806.07 C-48.65 806.07 -49.31 806.07 -49.99 806.07 C-51.4 804.67 -51.4 804.67 -53.05 802.69 C-55.82 799.44 -58.62 796.23 -61.49 793.07 C-64.81 789.39 -68.1 785.69 -71.35 781.95 C-72.48 780.66 -73.61 779.37 -74.75 778.09 C-75.03 777.77 -75.03 777.77 -76.43 776.19 C-76.92 775.64 -77.41 775.08 -77.92 774.51 C-78.99 773.07 -78.99 773.07 -78.99 771.07 C-79.65 771.07 -80.31 771.07 -80.99 771.07 C-82.38 769.51 -83.7 767.9 -84.99 766.25 C-88.21 762.23 -91.49 758.36 -94.99 754.57 C-108.99 739.32 -108.99 739.32 -108.99 736.07 C-109.65 736.07 -110.31 736.07 -110.99 736.07 C-112.72 734.17 -112.72 734.17 -114.61 731.69 C-115.25 730.88 -115.88 730.07 -116.53 729.23 C-117.99 727.07 -117.99 727.07 -117.99 725.07 C-118.65 725.07 -119.31 725.07 -119.99 725.07 C-121.6 723.33 -123.13 721.53 -124.61 719.69 C-125.43 718.69 -126.25 717.7 -127.09 716.67 C-128.99 714.07 -128.99 714.07 -128.99 712.07 C-129.65 712.07 -130.31 712.07 -130.99 712.07 C-132.6 710.33 -134.13 708.53 -135.61 706.69 C-136.43 705.69 -137.25 704.7 -138.09 703.67 C-139.99 701.07 -139.99 701.07 -139.99 699.07 C-140.65 699.07 -141.31 699.07 -141.99 699.07 C-143.75 696.98 -145.41 694.87 -147.05 692.69 C-151.77 686.55 -156.74 680.76 -161.99 675.07 C-163.33 673.59 -164.66 672.11 -165.99 670.63 C-166.27 670.32 -166.27 670.32 -167.68 668.76 C-168.99 667.07 -168.99 667.07 -169.99 664.07 C-170.65 664.07 -171.31 664.07 -171.99 664.07 C-173.65 662.24 -173.65 662.24 -175.49 659.82 C-176.1 659.03 -176.71 658.24 -177.33 657.43 C-178.99 655.07 -178.99 655.07 -179.96 652.89 C-181.28 650.56 -182.59 650.19 -184.99 649.07 C-186.59 647.47 -186.59 647.47 -188.18 645.57 C-191.75 641.32 -195.49 637.24 -199.27 633.17 C-200.99 631.07 -200.99 631.07 -200.99 629.07 C-201.65 629.07 -202.31 629.07 -202.99 629.07 C-202.99 628.41 -202.99 627.75 -202.99 627.07 C-203.65 627.07 -204.31 627.07 -204.99 627.07 C-204.99 626.41 -204.99 625.75 -204.99 625.07 C-205.65 625.07 -206.31 625.07 -206.99 625.07 C-206.99 624.41 -206.99 623.75 -206.99 623.07 C-207.98 622.74 -208.97 622.41 -209.99 622.07 C-209.99 621.41 -209.99 620.75 -209.99 620.07 C-210.65 620.07 -211.31 620.07 -211.99 620.07 C-214.11 618.19 -214.11 618.19 -215.99 616.07 C-215.99 615.41 -215.99 614.75 -215.99 614.07 C-216.65 614.07 -217.31 614.07 -217.99 614.07 C-219.33 612.4 -220.66 610.74 -221.99 609.07 C-222.9 608.34 -223.8 607.62 -224.74 606.88 C-225.48 606.28 -226.22 605.68 -226.99 605.07 C-226.99 604.41 -226.99 603.75 -226.99 603.07 C-227.55 602.79 -228.11 602.51 -228.68 602.22 C-231.58 600.77 -233.51 598.86 -235.86 596.63 C-245.26 587.95 -255.4 580.24 -265.99 573.07 C-266.67 572.58 -267.34 572.09 -268.04 571.59 C-283.51 560.7 -301.84 552.18 -320.99 554.07 C-326.69 555.9 -331.75 558.59 -335.06 563.72 C-336.46 567.24 -337.16 570.87 -337.93 574.57 C-339.08 579.95 -340.27 585.3 -341.68 590.63 C-342.92 595.45 -343.51 600.12 -343.99 605.07 C-344.32 605.73 -344.65 606.39 -344.99 607.07 C-345.19 608.56 -345.35 610.06 -345.49 611.57 C-345.88 615.84 -345.88 615.84 -346.99 618.07 C-347.46 621.04 -347.89 624.02 -348.3 627 C-349.43 634.93 -350.86 642.73 -352.63 650.53 C-353.65 655.09 -354.33 659.56 -354.74 664.21 C-354.99 666.07 -354.99 666.07 -355.99 668.07 C-356.19 669.9 -356.35 671.73 -356.49 673.57 C-356.88 678.84 -356.88 678.84 -357.99 681.07 C-358.15 682.58 -358.27 684.11 -358.36 685.63 C-358.77 690.59 -359.53 695.42 -360.43 700.32 C-361.69 707.16 -362.7 713.99 -363.56 720.89 C-363.82 722.79 -364.12 724.68 -364.51 726.55 C-365.11 729.72 -365.29 732.85 -365.49 736.07 C-365.88 742.54 -365.88 742.54 -366.49 745.47 C-367.37 750.02 -367.38 754.63 -367.55 759.25 C-367.59 760.41 -367.63 761.56 -367.68 762.74 C-368.04 774.02 -368.1 785.29 -368.11 796.57 C-368.12 797.44 -368.12 798.32 -368.12 799.22 C-368.14 808.59 -368.04 817.94 -367.61 827.3 C-367.58 828.06 -367.55 828.81 -367.52 829.59 C-366.67 845.82 -359.49 863.27 -349.02 875.68 C-347.99 877.07 -347.99 877.07 -347.99 879.07 C-347.33 879.07 -346.67 879.07 -345.99 879.07 C-345.99 879.73 -345.99 880.39 -345.99 881.07 C-345.33 881.07 -344.67 881.07 -343.99 881.07 C-342.32 882.73 -340.66 884.4 -338.99 886.07 C-337.9 886.79 -336.8 887.51 -335.68 888.25 C-335.23 888.55 -335.23 888.55 -332.99 890.07 C-332.99 890.73 -332.99 891.39 -332.99 892.07 C-332.46 892.16 -331.92 892.26 -331.37 892.36 C-328.25 893.29 -325.69 894.83 -322.86 896.44 C-318.14 899.04 -313.73 901.05 -308.5 902.36 C-305.66 903.16 -302.94 904.21 -300.18 905.26 C-297.95 906.08 -295.71 906.8 -293.45 907.5 C-292.68 907.73 -291.92 907.97 -291.13 908.22 C-289.57 908.7 -288 909.18 -286.44 909.64 C-281.45 911.22 -278.42 912.93 -274.99 917.07 C-273.45 920.14 -273.76 922.67 -273.99 926.07 C-275.11 929.25 -275.11 929.25 -276.99 932.07 C-279.71 932.83 -279.71 932.83 -283.27 932.88 C-283.96 932.89 -284.64 932.91 -285.35 932.93 C-286.96 932.97 -288.57 933 -290.18 933.02 C-293.32 933.07 -296.46 933.19 -299.6 933.31 C-307.54 933.63 -315.48 933.88 -323.43 934.13 C-324.14 934.15 -324.86 934.17 -325.6 934.2 C-345.37 934.81 -365.12 935.21 -384.9 935.11 C-404.47 935.02 -424.04 935.22 -443.61 935.5 C-444.4 935.52 -445.19 935.53 -446.01 935.54 C-464.29 935.8 -482.57 936.09 -500.84 936.63 C-512.13 936.96 -523.41 937.16 -534.7 937.32 C-535.45 937.33 -536.2 937.34 -536.97 937.35 C-544.57 937.45 -552.18 937.56 -559.78 937.65 C-573.05 937.81 -586.3 937.99 -599.56 938.7 C-609.82 939.25 -620.09 939.39 -630.36 939.57 C-643.29 939.79 -656.19 940.12 -669.11 940.72 C-675.9 941.03 -682.69 941.28 -689.49 941.32 C-689.96 941.33 -689.96 941.33 -692.32 941.38 C-698.01 941.41 -701.96 940.79 -706.99 938.07 C-710.38 934.68 -711.12 930.68 -711.24 926 C-711.01 922.38 -710.84 920.16 -708.99 917.07 C-706.14 914.84 -703.02 913.67 -699.68 912.38 C-679.89 904.6 -661.52 893.59 -645.99 879.07 C-645.22 878.36 -644.45 877.65 -643.66 876.92 C-637.6 871.08 -631.57 864.54 -627.35 857.23 C-627.13 856.88 -627.13 856.88 -625.99 855.07 C-625.33 855.07 -624.67 855.07 -623.99 855.07 C-623.73 854.2 -623.48 853.33 -623.22 852.43 C-621.95 848.96 -620.38 846.28 -618.36 843.19 C-614.05 836.39 -610.44 829.32 -606.95 822.06 C-606.02 820.14 -605.08 818.23 -604.14 816.31 C-600.28 808.37 -597.17 800.31 -594.35 791.94 C-593.47 789.36 -592.5 786.95 -591.41 784.44 C-590.1 781.32 -589.23 778.42 -588.49 775.13 C-587.72 771.71 -586.8 768.48 -585.55 765.22 C-583.95 761.06 -582.72 756.86 -581.55 752.57 C-581.34 751.79 -581.13 751.01 -580.91 750.2 C-580.26 747.83 -579.62 745.45 -578.99 743.07 C-578.8 742.36 -578.61 741.66 -578.42 740.94 C-576.31 732.95 -574.56 724.99 -573.13 716.85 C-572.16 711.54 -570.63 706.54 -568.96 701.41 C-567.67 696.97 -566.86 692.49 -566.06 687.94 C-565.17 682.92 -564.02 678.03 -562.74 673.11 C-561.9 669.71 -561.22 666.31 -560.55 662.88 C-559.49 657.43 -558.29 652.03 -556.99 646.63 C-555.48 640.36 -554.2 634.08 -553.06 627.73 C-552.17 622.83 -551 618.04 -549.74 613.21 C-548.67 608.73 -547.86 604.21 -547.08 599.67 C-546.37 595.65 -545.29 591.93 -543.99 588.07 C-543.56 585.91 -543.17 583.74 -542.8 581.57 C-541.33 573.25 -539.42 565.04 -537.49 556.82 C-537.19 555.55 -536.9 554.28 -536.59 552.98 C-535.22 547.19 -533.83 541.41 -532.36 535.65 C-531.22 531.12 -530.29 526.61 -529.49 522 C-528.52 516.6 -527.31 511.35 -525.8 506.08 C-524.77 502.24 -523.9 498.38 -523.05 494.5 C-522.97 494.12 -522.97 494.12 -522.54 492.19 C-522.02 489.81 -521.51 487.44 -520.99 485.07 C-520.3 481.92 -519.62 478.77 -518.93 475.63 C-518.78 474.93 -518.63 474.24 -518.47 473.52 C-517.61 469.59 -516.63 465.72 -515.55 461.84 C-513.84 455.65 -512.47 449.4 -511.11 443.13 C-509.35 435.06 -507.53 427.01 -505.49 419 C-503.53 411.32 -501.7 403.61 -499.93 395.88 C-499.67 394.77 -499.42 393.66 -499.16 392.52 C-498.66 390.36 -498.17 388.21 -497.67 386.05 C-493.4 367.41 -493.4 367.41 -491.55 360.88 C-489.79 354.58 -488.4 348.2 -486.97 341.82 C-482.65 322.65 -477.96 303.58 -472.99 284.57 C-469.26 270.3 -469.26 270.3 -467.68 264.07 C-467.37 262.87 -467.07 261.67 -466.75 260.44 C-465.99 257.07 -465.99 257.07 -465.51 253.57 C-464.97 249.92 -464.06 246.59 -462.99 243.07 C-460.5 234.66 -458.31 226.33 -456.6 217.73 C-455.99 215.07 -455.99 215.07 -454.99 214.07 C-454.56 212.16 -454.17 210.24 -453.8 208.32 C-452.52 202.13 -450.9 196.12 -449.11 190.07 C-446.96 182.74 -445.11 175.41 -443.49 167.94 C-441.76 159.98 -439.7 152.21 -437.05 144.5 C-435.56 140.16 -434.83 136.36 -434.43 131.75 C-433.72 129.22 -433.72 129.22 -431.99 127.07 C-426.54 124.12 -420.24 123.06 -414.23 121.77 C-410.95 121.06 -407.7 120.26 -404.44 119.43 C-348.07 105.4 -288.23 95.91 -230.05 95.88 C-228.8 95.87 -227.54 95.85 -226.25 95.84 C-225.06 95.84 -223.87 95.84 -222.65 95.84 C-221.58 95.83 -220.52 95.83 -219.42 95.82 C-218.62 95.9 -217.82 95.98 -216.99 96.07 C-215.75 98.55 -216.09 99.42 -216.66 102.1 C-216.75 102.51 -216.75 102.51 -217.18 104.56 C-217.36 105.41 -217.55 106.25 -217.74 107.13 C-217.91 107.95 -218.08 108.77 -218.25 109.62 C-219.31 114.56 -220.64 119.3 -222.35 124.06 C-223.29 127.03 -223.6 129.98 -223.99 133.07 C-224.32 133.4 -224.65 133.73 -224.99 134.07 C-225.15 135.22 -225.32 136.38 -225.49 137.57 C-225.99 141.07 -225.99 141.07 -226.99 142.07 C-227.13 143.12 -227.28 144.17 -227.43 145.25 C-227.95 148.79 -228.83 151.7 -229.99 155.07 C-232.66 163.71 -234.74 172.29 -236.38 181.18 C-236.99 184.07 -236.99 184.07 -237.99 185.07 C-238.46 187.12 -238.89 189.19 -239.3 191.25 C-240.31 196.1 -241.45 200.82 -242.86 205.57 C-244.65 211.64 -246.11 217.76 -247.49 223.94 C-250.31 236.53 -253.26 248.97 -257.18 261.27 C-258.13 264.55 -258.6 267.68 -258.99 271.07 C-259.32 271.4 -259.65 271.73 -259.99 272.07 C-260.46 274.25 -260.89 276.44 -261.3 278.63 C-263.57 290.39 -266.55 301.86 -270.18 313.27 C-271.13 316.55 -271.6 319.68 -271.99 323.07 C-272.32 323.4 -272.65 323.73 -272.99 324.07 C-273.46 326.29 -273.89 328.52 -274.3 330.75 C-275.26 335.8 -276.39 340.7 -277.86 345.63 C-279.67 351.7 -281.11 357.82 -282.49 364 C-284.14 371.44 -285.94 378.79 -287.95 386.14 C-289.27 391.05 -290.44 396 -291.61 400.94 C-291.82 401.81 -292.03 402.68 -292.24 403.57 C-293.4 408.49 -294.51 413.41 -295.54 418.36 C-295.99 420.07 -295.99 420.07 -296.99 421.07 C-297.46 423.46 -297.89 425.85 -298.3 428.25 C-299.47 434.84 -301.1 441.15 -303.02 447.56 C-304.38 452.48 -305.32 457.46 -306.27 462.47 C-306.93 465.76 -307.73 468.96 -308.61 472.19 C-310.24 478.43 -310.69 484.64 -310.99 491.07 C-310.33 491.07 -309.67 491.07 -308.99 491.07 C-308.56 491.55 -308.13 492.04 -307.69 492.54 C-305.37 494.63 -303.93 494.44 -300.84 494.44 C-300.31 494.44 -300.31 494.44 -297.65 494.46 C-297.08 494.45 -297.08 494.45 -294.18 494.43 C-293.59 494.43 -293.59 494.43 -290.58 494.43 C-288.05 494.43 -285.52 494.42 -282.99 494.4 C-279.19 494.38 -275.39 494.38 -271.59 494.39 C-252.37 494.37 -233.67 493.03 -214.72 489.84 C-211.54 489.31 -208.36 488.83 -205.16 488.38 C-189.38 486.18 -173.84 483.01 -158.48 478.75 C-155.33 477.89 -152.17 477.13 -148.99 476.38 C-125.13 470.52 -101.97 462.57 -79.05 453.79 C-77.7 453.28 -76.35 452.76 -75 452.25 C-67.33 449.33 -59.93 446.14 -52.64 442.38 C-50.34 441.24 -48.1 440.28 -45.7 439.41 C-41.88 438.03 -38.29 436.35 -34.68 434.5 C-33.99 434.16 -33.31 433.81 -32.6 433.45 C-31.14 432.7 -29.68 431.96 -28.22 431.21 C-26.03 430.09 -23.84 428.98 -21.64 427.88 C-2.55 418.18 15.86 406.89 33.01 394.07 C34.27 393.15 35.53 392.24 36.79 391.33 C44.42 385.82 51.83 380.14 59.01 374.07 C59.58 373.58 60.15 373.1 60.74 372.61 C62.61 371.04 64.47 369.46 66.32 367.88 C66.9 367.39 67.47 366.9 68.07 366.4 C70.94 363.94 73.67 361.42 76.3 358.7 C79.01 356.07 79.01 356.07 81.01 356.07 C81.01 355.41 81.01 354.75 81.01 354.07 C81.67 354.07 82.33 354.07 83.01 354.07 C83.01 353.41 83.01 352.75 83.01 352.07 C83.67 352.07 84.33 352.07 85.01 352.07 C85.01 351.41 85.01 350.75 85.01 350.07 C86.73 348.41 86.73 348.41 88.95 346.57 C92.91 343.27 92.91 343.27 94.01 341.07 C94.67 341.07 95.33 341.07 96.01 341.07 C96.01 340.41 96.01 339.75 96.01 339.07 C96.67 339.07 97.33 339.07 98.01 339.07 C98.68 337.73 99.35 336.4 100.01 335.07 C101.43 333.41 102.89 331.78 104.39 330.19 C106.98 327.38 109.42 324.68 111.45 321.44 C111.71 321.05 111.71 321.05 113.01 319.07 C113.67 319.07 114.33 319.07 115.01 319.07 C115.69 317.41 116.36 315.74 117.01 314.07 C118.19 312.32 119.43 310.62 120.7 308.94 C128.4 298.53 134.44 287.72 140.01 276.07 C140.51 275.03 141.01 273.99 141.52 272.91 C144.1 267.4 146.24 261.89 148.01 256.07 C148.26 255.28 148.5 254.49 148.75 253.67 C149.53 251.14 150.27 248.61 151.01 246.07 C151.27 245.19 151.53 244.31 151.8 243.41 C155.1 231.86 156.34 220.7 156.27 208.72 C156.26 206.57 156.27 204.42 156.28 202.27 C156.32 172.7 144.95 145.8 124.2 124.82 C114.18 114.98 103.19 107.07 91.01 100.07 C89.94 99.44 88.87 98.82 87.77 98.18 C62.86 84.27 35.67 75.59 8.01 69.07 C7.13 68.84 6.25 68.6 5.34 68.37 C-1.86 66.49 -9.01 65.14 -16.36 64.07 C-17.49 63.9 -18.61 63.73 -19.76 63.56 C-23.17 63.05 -26.58 62.56 -29.99 62.07 C-31.01 61.92 -32.02 61.77 -33.07 61.61 C-43.6 60.06 -54.04 58.75 -64.68 58.28 C-67.99 58.07 -67.99 58.07 -70.76 57.57 C-74.2 57.03 -77.51 56.85 -81 56.75 C-81.34 56.74 -81.34 56.74 -83.1 56.69 C-85.44 56.62 -87.77 56.56 -90.11 56.5 C-90.94 56.48 -91.77 56.46 -92.62 56.44 C-127.53 55.59 -162.51 55.69 -197.43 56.5 C-198.31 56.52 -199.19 56.54 -200.09 56.56 C-202.54 56.62 -204.98 56.68 -207.42 56.75 C-208.12 56.77 -208.83 56.78 -209.55 56.8 C-213.14 56.91 -216.48 57.32 -219.99 58.07 C-221.62 58.19 -223.26 58.29 -224.9 58.35 C-225.35 58.37 -225.35 58.37 -227.65 58.46 C-229.54 58.53 -231.44 58.6 -233.33 58.67 C-233.78 58.69 -233.78 58.69 -236.08 58.79 C-236.9 58.82 -237.73 58.85 -238.57 58.88 C-241.11 59.08 -243.5 59.55 -245.99 60.07 C-249.36 60.32 -252.73 60.5 -256.11 60.67 C-258.9 60.82 -261.62 60.99 -264.36 61.56 C-266.75 62.02 -268.95 62.22 -271.36 62.36 C-292.46 63.57 -313.19 67.17 -334.02 70.58 C-336.98 71.07 -339.94 71.55 -342.91 72.03 C-348.58 72.95 -354.25 73.88 -359.93 74.82 C-360.79 74.96 -361.66 75.1 -362.55 75.25 C-371.63 76.74 -380.65 78.34 -389.63 80.33 C-393.16 81.1 -396.7 81.82 -400.24 82.53 C-401.45 82.77 -402.65 83.02 -403.89 83.27 C-406.34 83.76 -408.78 84.25 -411.22 84.73 C-418.34 86.17 -425.19 87.98 -432.11 90.19 C-435.71 91.29 -439.21 91.96 -442.93 92.57 C-449.12 93.64 -455.05 95.15 -461.07 96.96 C-466.8 98.63 -472.63 99.91 -478.44 101.23 C-483.3 102.35 -487.97 103.68 -492.68 105.31 C-496.94 106.71 -501.28 107.8 -505.61 108.94 C-513.39 111.03 -521.02 113.3 -528.63 115.92 C-531.84 117.01 -535.06 118.02 -538.3 119 C-543.68 120.64 -549.03 122.36 -554.36 124.13 C-555.11 124.37 -555.86 124.62 -556.63 124.87 C-561.2 126.39 -565.57 128.16 -569.99 130.07 C-572.62 131.05 -575.27 131.96 -577.93 132.88 C-590.23 137.19 -602.32 141.58 -614.09 147.23 C-616.8 148.52 -619.53 149.75 -622.3 150.94 C-632.58 155.36 -642.32 160.39 -652.03 165.95 C-655.52 167.94 -659.06 169.84 -662.6 171.76 C-664.22 172.65 -665.84 173.55 -667.44 174.47 C-674.52 178.51 -680.69 181.09 -688.99 180.07 C-692.04 178.87 -692.87 178.25 -694.74 175.44 C-696.61 170.38 -697.1 166.63 -694.96 161.68 C-690.25 153.34 -683.74 145.72 -675.99 140.07 C-675.33 140.07 -674.67 140.07 -673.99 140.07 C-673.99 139.41 -673.99 138.75 -673.99 138.07 C-672.57 136.79 -672.57 136.79 -670.58 135.34 C-670.21 135.08 -670.21 135.08 -668.35 133.72 C-667.55 133.16 -666.75 132.59 -665.93 132 C-665.11 131.42 -664.3 130.84 -663.46 130.24 C-656.19 125.1 -648.69 120.52 -640.99 116.07 C-639.34 115.05 -637.7 114.03 -636.05 113 C-623.29 105.36 -609.45 99.36 -595.99 93.07 C-594.96 92.58 -593.93 92.1 -592.87 91.6 C-586.53 88.66 -580.07 86.06 -573.57 83.5 C-571.21 82.56 -568.87 81.58 -566.55 80.57 C-562.68 78.93 -558.77 77.51 -554.8 76.13 C-554.06 75.87 -553.32 75.61 -552.56 75.34 C-547.29 73.5 -542.01 71.73 -536.7 70.02 C-533.99 69.07 -533.99 69.07 -530.7 67.61 C-526.64 65.83 -522.46 64.74 -518.18 63.63 C-513.22 62.3 -508.4 60.97 -503.68 58.94 C-499.15 57.01 -494.61 56.01 -489.8 54.98 C-485.18 53.87 -480.66 52.52 -476.11 51.13 C-464 47.44 -451.94 44.17 -439.49 41.79 C-435.44 40.95 -431.5 39.88 -427.53 38.75 C-424.23 37.86 -420.91 37.23 -417.56 36.59 C-414.84 36.03 -412.17 35.34 -409.49 34.63 C-403.6 33.12 -397.68 32.14 -391.68 31.19 C-387.34 30.49 -383.08 29.68 -378.8 28.63 C-371.78 26.93 -364.68 25.75 -357.56 24.55 C-352.19 23.64 -346.87 22.65 -341.55 21.5 C-333.77 19.89 -325.91 18.98 -318.02 18.07 C-317.03 17.95 -316.03 17.83 -315 17.71 C-314.11 17.61 -313.22 17.51 -312.29 17.41 C-309.99 17.07 -309.99 17.07 -306.99 16.07 C-304.19 15.76 -301.39 15.56 -298.58 15.35 C-295.99 15.07 -295.99 15.07 -292.99 14.07 C-290.72 13.74 -288.45 13.46 -286.18 13.19 C-279.48 12.39 -272.8 11.5 -266.11 10.57 C-252.48 8.69 -238.87 7.05 -225.13 6.31 C-221.99 6.07 -221.99 6.07 -219.6 5.57 C-215.19 4.72 -210.71 4.67 -206.23 4.46 C-203.27 4.31 -200.45 4.16 -197.55 3.56 C-193.58 2.79 -189.59 2.77 -185.55 2.63 C-179.27 2.37 -173.04 2.01 -166.8 1.33 C-111.86 -4.54 -55.1 -1.22 0 0 Z " fill="#F5F5F5" transform="translate(742.9889526367188,40.93359375)"/>
</svg>